HIERARCHY
ROOT Torso
{
	OFFSET 0.000000 0.000000 0.000000
	CHANNELS 6 Xposition Yposition Zposition Zrotation Yrotation Xrotation 
	JOINT LHip
	{
		OFFSET 0.000000 0.000000 0.000000
		CHANNELS 3 Zrotation Yrotation Xrotation
		JOINT LThigh
		{
			OFFSET -0.010000 -0.055000 -0.055000
			CHANNELS 3 Zrotation Yrotation Xrotation
			JOINT LLeg
			{
				OFFSET 0.015000 -0.160000 0.000000
				CHANNELS 3 Zrotation Yrotation Xrotation
				JOINT LFoot
				{
					OFFSET -0.010000 -0.160000 0.000000
					CHANNELS 3 Zrotation Yrotation Xrotation
					JOINT LToes
					{
						OFFSET 0.090000 0.000000 0.000000
						CHANNELS 3 Zrotation Yrotation Xrotation
						End Site
						{
							OFFSET 0.000000 0.000000 0.000000
						}
					}
				}
			}
		}
	}
	JOINT RHip
	{
		OFFSET 0.000000 0.000000 0.000000
		CHANNELS 3 Zrotation Yrotation Xrotation
		JOINT RThigh
		{
			OFFSET -0.010000 -0.055000 0.055000
			CHANNELS 3 Zrotation Yrotation Xrotation
			JOINT RLeg
			{
				OFFSET 0.015000 -0.160000 0.000000
				CHANNELS 3 Zrotation Yrotation Xrotation
				JOINT RFoot
				{
					OFFSET -0.010000 -0.160000 0.000000
					CHANNELS 3 Zrotation Yrotation Xrotation
					JOINT RToes
					{
						OFFSET 0.090000 0.000000 0.000000
						CHANNELS 3 Zrotation Yrotation Xrotation
						End Site
						{
							OFFSET 0.000000 0.000000 0.000000
						}
					}
				}
			}
		}
	}
	JOINT Neck
	{
		OFFSET 0.000000 0.135000 0.000000
		CHANNELS 3 Zrotation Yrotation Xrotation
		JOINT Head
		{
			OFFSET 0.000000 0.075000 0.000000
			CHANNELS 3 Zrotation Yrotation Xrotation
			End Site
			{
				OFFSET 0.000000 0.000000 0.000000
			}
		}
	}
	JOINT LUpperarm
	{
		OFFSET 0.000000 0.150000 -0.098000
		CHANNELS 3 Zrotation Yrotation Xrotation
		JOINT LLowerarm
		{
			OFFSET 0.090000 0.009000 0.000000
			CHANNELS 3 Zrotation Yrotation Xrotation
			JOINT LHand
			{
				OFFSET 0.105000 0.000000 0.000000
				CHANNELS 3 Zrotation Yrotation Xrotation
				End Site
				{
					OFFSET 0.000000 0.000000 0.000000
				}
			}
		}
	}
	JOINT RUpperarm
	{
		OFFSET 0.000000 0.150000 0.098000
		CHANNELS 3 Zrotation Yrotation Xrotation
		JOINT RLowerarm
		{
			OFFSET 0.090000 0.009000 0.000000
			CHANNELS 3 Zrotation Yrotation Xrotation
			JOINT RHand
			{
				OFFSET 0.105000 0.000000 0.000000
				CHANNELS 3 Zrotation Yrotation Xrotation
				End Site
				{
					OFFSET 0.000000 0.000000 0.000000
				}
			}
		}
	}
}
MOTION
Frames: 13
Frame Time: 0.040000
-0.020641 0.426983 -0.459635 159.720342 -68.055346 -159.290107 17.144112 -10.038604 -5.596169 -31.879561 -5.685606 -3.782839 -11.419020 12.731938 -2.818136 -8.428853 25.358958 -38.550382 0.243800 3.177198 8.772496 6.494961 35.810923 6.638567 -11.762333 13.354867 4.202670 -17.064666 -18.713586 9.558820 -9.874793 -35.319503 -37.199683 -0.810100 5.743797 -16.042792 -25.187464 6.779771 -2.466691 -2.738599 2.670999 5.693397 -49.310751 72.490799 -69.349306 47.006624 -36.896409 -12.804094 0.000000 0.000000 -17.672891 -96.116612 7.046137 97.161484 -1.054131 24.462938 -8.761195 0.000000 0.000000 -20.794590 
-0.020690 0.426975 -0.459727 160.644342 -67.470971 -159.941931 17.043030 -9.526951 -5.489051 -31.610043 -5.690622 -3.908622 -11.367769 12.785503 -2.882814 -8.578731 25.522281 -38.403182 0.233100 3.107198 8.577196 6.695183 36.457172 6.625020 -11.898311 13.236743 4.146222 -17.150821 -18.653321 9.546816 -9.813023 -35.191033 -37.214683 -0.807200 5.733797 -16.014092 -24.862952 6.535824 -3.351612 -2.727699 2.665499 5.680197 -46.705557 72.500694 -67.830253 44.865058 -34.224311 -10.505695 0.000000 0.000000 -19.291491 -95.632572 6.942435 96.959094 -1.274456 24.233431 -8.785595 0.000000 0.000000 -20.863290 
-0.020751 0.426975 -0.459807 161.202297 -67.107751 -160.300009 16.960624 -9.157649 -5.404692 -31.406640 -5.715312 -3.996913 -11.327941 12.814983 -2.927033 -8.747413 25.637450 -38.232982 0.220600 3.023198 8.343196 6.830753 36.910079 6.632303 -12.011075 13.116905 4.093195 -17.218007 -18.614413 9.540372 -9.720937 -35.095543 -37.268283 -0.797600 5.700297 -15.917192 -24.620002 6.358590 -4.067111 -2.692799 2.664399 5.670097 -44.610387 72.339523 -66.375761 43.379734 -32.276871 -9.022795 0.000000 0.000000 -19.780890 -95.302307 6.883996 96.804202 -1.402832 24.029656 -8.784895 0.000000 0.000000 -20.912190 
-0.020817 0.426989 -0.459884 161.348508 -67.038693 -160.352006 16.915433 -8.974642 -5.330517 -31.286989 -5.772650 -4.039933 -11.314604 12.815542 -2.944797 -8.932490 25.684820 -38.039382 0.206400 2.925099 8.070296 6.901215 37.112109 6.681029 -12.098972 12.985094 4.042488 -17.248985 -18.600193 9.535426 -9.606757 -35.044710 -37.357683 -0.780700 5.641097 -15.746592 -24.481615 6.271130 -4.485107 -2.634899 2.668599 5.667797 -43.029253 71.910724 -65.098828 42.468377 -31.306212 -8.258696 0.000000 0.000000 -19.657090 -95.173772 6.869034 96.713355 -1.442738 23.889172 -8.767296 0.000000 0.000000 -20.930390 
-0.020895 0.427011 -0.459961 161.069591 -67.295646 -160.101621 16.915991 -9.004344 -5.269974 -31.254214 -5.866184 -4.022734 -11.334435 12.788638 -2.936818 -9.131418 25.659490 -37.824682 0.190800 2.812799 7.757896 6.901549 37.053565 6.763374 -12.143076 12.845649 4.014272 -17.234602 -18.616993 9.533108 -9.474429 -35.057827 -37.485983 -0.757500 5.558597 -15.508892 -24.451561 6.271462 -4.530186 -2.552799 2.674699 5.671897 -41.926808 71.195777 -64.018358 42.077226 -31.420198 -8.138896 0.000000 0.000000 -19.359791 -95.273516 6.891463 96.733126 -1.423301 23.843471 -8.744297 0.000000 0.000000 -20.915190 
-0.020980 0.427036 -0.460047 160.392855 -67.844351 -159.567953 16.957409 -9.235011 -5.230597 -31.297496 -5.983438 -3.939712 -11.389496 12.743793 -2.907778 -9.329084 25.557302 -37.601783 0.174800 2.693099 7.425396 6.832206 36.774448 6.860512 -12.130670 12.712026 4.029224 -17.173746 -18.666454 9.532973 -9.323103 -35.145116 -37.657982 -0.729800 5.457997 -15.219692 -24.515672 6.339635 -4.218691 -2.447699 2.676799 5.678097 -41.301076 70.312327 -63.047415 42.172666 -32.565586 -8.632396 0.000000 0.000000 -19.065591 -95.591530 6.943087 96.900568 -1.379949 23.898405 -8.725495 0.000000 0.000000 -20.876690 
-0.021080 0.427055 -0.460124 159.345085 -68.614631 -158.753146 17.030695 -9.626077 -5.212997 -31.404928 -6.113141 -3.804473 -11.478714 12.690990 -2.862047 -9.506343 25.376772 -37.387183 0.159400 2.572099 7.089496 6.701854 36.332800 6.962284 -12.072007 12.580960 4.091246 -17.069997 -18.743365 9.530773 -9.149140 -35.291720 -37.871982 -0.699200 5.344897 -14.894793 -24.662192 6.434824 -3.634842 -2.317799 2.661499 5.677997 -41.124563 69.449556 -61.988063 42.752190 -34.583583 -9.752495 0.000000 0.000000 -18.798691 -96.089013 7.017472 97.236789 -1.342672 24.038747 -8.714596 0.000000 0.000000 -20.829490 
-0.021193 0.427066 -0.460179 157.980065 -69.519914 -157.681986 17.122874 -10.125626 -5.211262 -31.559215 -6.243816 -3.636575 -11.594166 12.637369 -2.804734 -9.659959 25.132940 -37.185883 0.144800 2.452699 6.758397 6.528819 35.790794 7.067812 -11.982376 12.458701 4.193712 -16.934740 -18.839282 9.525131 -8.957490 -35.485816 -38.119482 -0.669700 5.233397 -14.575593 -24.860509 6.538395 -2.872234 -2.170499 2.624899 5.665697 -41.324275 68.800854 -60.597881 43.841538 -37.240316 -11.539094 0.000000 0.000000 -18.480591 -96.700401 7.113065 97.706471 -1.316185 24.228336 -8.707195 0.000000 0.000000 -20.782990 
-0.021325 0.427069 -0.460221 156.369768 -70.475069 -156.400430 17.217496 -10.676751 -5.208002 -31.733138 -6.367486 -3.456162 -11.720016 12.585746 -2.741633 -9.809584 24.850905 -36.980583 0.130800 2.331099 6.421697 6.343954 35.212488 7.189256 -11.879768 12.350949 4.321269 -16.787653 -18.945699 9.518798 -8.748959 -35.710704 -38.393882 -0.643100 5.130297 -14.280693 -25.081051 6.641163 -2.029995 -2.014199 2.567299 5.641097 -41.760034 68.524128 -58.674908 45.503997 -40.258076 -14.036193 0.000000 0.000000 -18.124191 -97.356601 7.223443 98.248415 -1.296199 24.425901 -8.698096 0.000000 0.000000 -20.740090 
-0.021463 0.427069 -0.460248 154.591631 -71.427084 -154.969195 17.305465 -11.233313 -5.178530 -31.905812 -6.491678 -3.284664 -11.838369 12.533369 -2.676512 -9.976020 24.559016 -36.753883 0.116700 2.202799 6.066497 6.182054 34.642340 7.349163 -11.787169 12.237998 4.448297 -16.650058 -19.055511 9.516244 -8.519382 -35.931895 -38.684982 -0.617000 5.026997 -13.985493 -25.311767 6.733603 -1.186346 -1.849499 2.487399 5.600797 -42.200473 68.695343 -56.043371 47.817295 -43.382581 -17.291291 0.000000 0.000000 -17.644691 -98.013928 7.339054 98.819286 -1.283266 24.609615 -8.688096 0.000000 0.000000 -20.683590 
-0.021596 0.427066 -0.460268 152.715943 -72.333912 -153.450011 17.383400 -11.756313 -5.095526 -32.065039 -6.635671 -3.143836 -11.939786 12.477200 -2.611011 -10.154156 24.282847 -36.516183 0.103700 2.076699 5.717497 6.076134 34.103401 7.576513 -11.730447 12.098609 4.542786 -16.534496 -19.158940 9.518581 -8.282591 -36.121425 -38.969182 -0.590900 4.921698 -13.685293 -25.497740 6.861267 -0.337095 -1.698099 2.406799 5.559097 -42.380160 69.343672 -52.572730 50.823910 -46.398629 -21.335990 0.000000 0.000000 -16.769992 -98.637005 7.452200 99.352689 -1.265888 24.762251 -8.678495 0.000000 0.000000 -20.594690 
-0.021709 0.427069 -0.460279 150.828007 -73.171650 -151.929591 17.453337 -12.223508 -4.939774 -32.204401 -6.816724 -3.043232 -12.022883 12.415943 -2.545380 -10.317548 24.036388 -36.298383 0.093400 1.971299 5.426397 6.047926 33.605964 7.891384 -11.718991 11.924121 4.583592 -16.444589 -19.250095 9.526554 -8.061680 -36.267535 -39.220882 -0.566200 4.819398 -13.394293 -25.602082 7.029256 0.535018 -1.566999 2.332099 5.523397 -41.963592 70.485312 -48.147328 54.501852 -49.181725 -26.148087 0.000000 0.000000 -15.196292 -99.193770 7.555654 99.791296 -1.237740 24.867075 -8.670396 0.000000 0.000000 -20.476090 
-0.021797 0.427077 -0.460292 149.062323 -73.922850 -150.552237 17.515966 -12.638817 -4.721585 -32.315140 -7.020920 -2.961937 -12.088805 12.354371 -2.483953 -10.439474 23.830855 -36.131083 0.087100 1.903699 5.239697 6.094083 33.175611 8.270246 -11.712613 11.736713 4.593169 -16.380486 -19.334743 9.545971 -7.873245 -36.378724 -39.427582 -0.543700 4.724198 -13.123493 -25.571975 7.215757 1.481217 -1.461599 2.265799 5.497297 -40.521730 72.162735 -42.648626 58.796371 -51.784969 -31.625185 0.000000 0.000000 -12.800294 -99.651273 7.644234 100.116254 -1.215998 24.910559 -8.667696 0.000000 0.000000 -20.343290 
